<?xml version="1.0" encoding="iso-8859-1"?>
<!-- Uploaded to: SVG Repo, www.svgrepo.com, Generator: SVG Repo Mixer Tools -->
<svg height="800px" width="800px" version="1.1" id="Layer_1" xmlns="http://www.w3.org/2000/svg" xmlns:xlink="http://www.w3.org/1999/xlink" 
	 viewBox="0 0 511.653 511.653" xml:space="preserve">
<g transform="translate(1 1)">
	<path style="fill:#FFFFFF;" d="M496.493,333.333c6.827-5.12,7.68-15.36,2.56-22.187c-11.093-14.507-19.627-18.773-56.32,0.853
		l-74.24,45.227c-23.04,11.947-81.92,8.533-107.52,8.533c0,0,60.587,4.267,36.693-31.573c-11.947-17.92-32.427-28.16-54.613-28.16
		h-33.28c-19.627,0-38.4-5.973-53.76-17.067C119.32,260.8,50.2,263.36,50.2,263.36v204.8h119.467c17.067,0,34.133-1.707,51.2-4.267
		L331.8,446.826c3.413,0,7.68-0.853,11.093-0.853l0,0c9.387-0.853,17.067-5.973,23.893-11.947L496.493,333.333L496.493,333.333z"/>
	<g>
		<path style="fill:#0096E6;" d="M169.667,476.693h-128V254.826H50.2c2.56,0,73.387-1.707,110.933,26.453
			c13.653,10.24,30.72,15.36,48.64,15.36h33.28c24.747,0,47.787,11.947,61.44,31.573c7.68,11.093,9.387,20.48,5.12,28.16
			c21.333,0,44.373-1.707,54.613-7.68l73.387-45.227c37.547-19.627,52.907-19.627,68.267,0.853c7.68,10.24,5.973,25.6-4.267,34.133
			l0,0l-128.853,102.4c-8.533,7.68-17.92,12.8-28.16,14.507c-3.413,0.853-7.68,1.707-11.947,1.707L221.72,474.133
			C204.653,474.986,186.733,476.693,169.667,476.693z M58.733,459.626h110.933c16.213,0,33.28-0.853,49.493-3.413l112.64-17.067
			c3.413,0,5.973,0,9.387-0.853h0.853c6.827-0.853,12.8-4.267,18.773-9.387l0.853-0.853L491.373,327.36
			c3.413-2.56,3.413-7.68,1.707-10.24c-6.827-10.24-11.093-14.507-46.08,3.413l-73.387,45.227
			C353.987,376,316.44,376.853,276.333,376c-1.707,0-3.413,0-4.267,0c-5.12,0-8.533,0-11.093,0l0.853-17.067c2.56,0,5.973,0,9.387,0
			c11.093-0.853,21.333-2.56,23.893-6.827c0.853-1.707,0-6.827-3.413-11.947c-11.947-17.067-29.013-25.6-48.64-25.6h-33.28
			c-22.187,0-42.667-6.827-58.88-18.773c-26.453-20.48-73.387-23.893-92.16-23.893V459.626z M496.493,333.333L496.493,333.333
			L496.493,333.333z"/>
		<path style="fill:#0096E6;" d="M260.973,376H178.2c-5.12,0-8.533-3.413-8.533-8.533s3.413-8.533,8.533-8.533h82.773
			c5.12,0,8.533,3.413,8.533,8.533S266.093,376,260.973,376z"/>
	</g>
	<polygon style="fill:#D0E8F9;" points="7.533,237.76 50.2,237.76 50.2,493.76 7.533,493.76 	"/>
	<g>
		<path style="fill:#0096E6;" d="M58.733,502.293H-1V229.226h59.733V502.293z M16.067,485.226h25.6V246.293h-25.6V485.226z"/>
		<path style="fill:#0096E6;" d="M144.067,401.6c-5.12,0-8.533-3.413-8.533-8.533c0-21.333,16.213-34.133,42.667-34.133
			c5.12,0,8.533,3.413,8.533,8.533S183.32,376,178.2,376c-25.6,0-25.6,12.8-25.6,17.067C152.6,398.186,149.187,401.6,144.067,401.6z
			"/>
	</g>
	<path style="fill:#D0E8F9;" d="M425.667,84.16c0,37.547-30.72,68.267-68.267,68.267s-68.267-30.72-68.267-68.267
		s30.72-68.267,68.267-68.267S425.667,46.613,425.667,84.16L425.667,84.16z"/>
	<path style="fill:#0096E6;" d="M357.4,160.96c-42.667,0-76.8-34.133-76.8-76.8s34.133-76.8,76.8-76.8s76.8,34.133,76.8,76.8
		S400.067,160.96,357.4,160.96z M357.4,24.426c-33.28,0-59.733,26.453-59.733,59.733s26.453,59.733,59.733,59.733
		s59.733-26.453,59.733-59.733S390.68,24.426,357.4,24.426z"/>
	<path style="fill:#D0E8F9;" d="M193.56,304.32c5.12,0.853,11.093,1.707,16.213,1.707h33.28c5.12,0,11.093,0.853,16.213,1.707
		c23.04-11.093,38.4-34.133,38.4-61.44c0-37.547-30.72-68.267-68.267-68.267s-68.267,30.72-68.267,68.267
		C161.133,271.04,173.933,292.373,193.56,304.32L193.56,304.32z"/>
	<path style="fill:#0096E6;" d="M260.12,316.266l-2.56-0.853c-5.12-0.853-9.387-0.853-14.507-0.853h-33.28
		c-5.973,0-11.947-0.853-17.92-1.707h-1.707L188.44,312c-22.187-14.507-35.84-39.253-35.84-65.707c0-42.667,34.133-76.8,76.8-76.8
		s76.8,34.133,76.8,76.8c0,29.867-16.213,56.32-43.52,69.12L260.12,316.266z M196.973,295.786c4.267,0.853,8.533,0.853,12.8,0.853
		h33.28c5.12,0,10.24,0.853,14.507,1.707c19.627-10.24,31.573-30.72,31.573-52.053c0-33.28-26.453-59.733-59.733-59.733
		s-59.733,26.453-59.733,59.733C169.667,266.773,179.907,284.693,196.973,295.786z"/>
	<path style="fill:#FFFFFF;" d="M263.533,246.293c0,18.773-15.36,34.133-34.133,34.133s-34.133-15.36-34.133-34.133
		s15.36-34.133,34.133-34.133S263.533,227.52,263.533,246.293L263.533,246.293z"/>
	<path style="fill:#0096E6;" d="M229.4,288.96c-23.893,0-42.667-18.773-42.667-42.667s18.773-42.667,42.667-42.667
		s42.667,18.773,42.667,42.667S253.293,288.96,229.4,288.96z M229.4,220.693c-14.507,0-25.6,11.093-25.6,25.6s11.093,25.6,25.6,25.6
		c14.507,0,25.6-11.093,25.6-25.6S243.907,220.693,229.4,220.693z"/>
	<path style="fill:#FFFFFF;" d="M391.533,84.16c0,18.773-15.36,34.133-34.133,34.133s-34.133-15.36-34.133-34.133
		s15.36-34.133,34.133-34.133S391.533,65.386,391.533,84.16L391.533,84.16z"/>
	<path style="fill:#0096E6;" d="M357.4,126.826c-23.893,0-42.667-18.773-42.667-42.667s18.773-42.667,42.667-42.667
		c23.893,0,42.667,18.773,42.667,42.667S381.293,126.826,357.4,126.826z M357.4,58.56c-14.507,0-25.6,11.093-25.6,25.6
		s11.093,25.6,25.6,25.6S383,98.666,383,84.16S371.907,58.56,357.4,58.56z"/>
</g>
</svg>